<?xml version="1.0" encoding="UTF-8"?>
<svg id="Capa_2" data-name="Capa 2" xmlns="http://www.w3.org/2000/svg" viewBox="0 0 68.41 82.02">
  <defs>
    <style>
      .cls-1 {
        fill: #fff;
        fill-rule: evenodd;
      }
    </style>
  </defs>
  <g id="Modo_de_aislamiento" data-name="Modo de aislamiento">
    <path class="cls-1" d="M7.97,0H60.44c4.38,0,7.97,3.59,7.97,7.97V74.05c0,4.38-3.59,7.97-7.97,7.97H7.97c-4.38,0-7.97-3.59-7.97-7.97V7.97C0,3.59,3.59,0,7.97,0h0Zm1.17,7.02H59.28c.91,0,1.64,.76,1.64,1.64v14.55c0,.88-.72,1.64-1.64,1.64H9.13c-.88,0-1.64-.76-1.64-1.64V8.66c0-.88,.75-1.64,1.64-1.64h0ZM50.55,63.5h7.5c1.16,0,2.11,.94,2.11,2.11v7.24c0,1.17-.94,2.11-2.11,2.11h-7.5c-1.17,0-2.11-.95-2.11-2.11v-7.24c0-1.17,.94-2.11,2.11-2.11h0Zm-20.09,0h7.5c1.17,0,2.11,.94,2.11,2.11v7.24c0,1.17-.94,2.11-2.11,2.11h-7.5c-1.17,0-2.11-.95-2.11-2.11v-7.24c0-1.17,.95-2.11,2.11-2.11h0Zm-20.09,0h7.5c1.17,0,2.11,.94,2.11,2.11v7.24c0,1.17-.94,2.11-2.11,2.11h-7.5c-1.17,0-2.11-.95-2.11-2.11v-7.24c0-1.17,.95-2.11,2.11-2.11h0Zm40.19-15.81h7.5c1.16,0,2.11,.94,2.11,2.11v7.24c0,1.17-.94,2.11-2.11,2.11h-7.5c-1.17,0-2.11-.95-2.11-2.11v-7.24c0-1.17,.94-2.11,2.11-2.11h0Zm-20.09,0h7.5c1.17,0,2.11,.94,2.11,2.11v7.24c0,1.17-.94,2.11-2.11,2.11h-7.5c-1.17,0-2.11-.95-2.11-2.11v-7.24c0-1.17,.95-2.11,2.11-2.11h0Zm-20.09,0h7.5c1.17,0,2.11,.94,2.11,2.11v7.24c0,1.17-.94,2.11-2.11,2.11h-7.5c-1.17,0-2.11-.95-2.11-2.11v-7.24c0-1.17,.95-2.11,2.11-2.11h0Zm40.19-15.81h7.5c1.16,0,2.11,.94,2.11,2.11v7.24c0,1.17-.94,2.11-2.11,2.11h-7.5c-1.17,0-2.11-.94-2.11-2.11v-7.24c0-1.17,.94-2.11,2.11-2.11h0Zm-20.09,0h7.5c1.17,0,2.11,.94,2.11,2.11v7.24c0,1.17-.94,2.11-2.11,2.11h-7.5c-1.17,0-2.11-.94-2.11-2.11v-7.24c0-1.17,.95-2.11,2.11-2.11h0Zm-20.09,0h7.5c1.17,0,2.11,.94,2.11,2.11v7.24c0,1.17-.94,2.11-2.11,2.11h-7.5c-1.17,0-2.11-.94-2.11-2.11v-7.24c0-1.17,.95-2.11,2.11-2.11h0Z"/>
  </g>
</svg>