<?xml version="1.0" encoding="UTF-8"?>
<svg id="Capa_2" data-name="Capa 2" xmlns="http://www.w3.org/2000/svg" viewBox="0 0 194.2 99.54">
  <defs>
    <style>
      .cls-1 {
        fill: #017a2f;
      }
    </style>
  </defs>
  <g id="Capa_1-2" data-name="Capa 1">
    <path class="cls-1" d="M182.21,43.38c0,20.29-40.36,36.73-90.15,36.73-31.22,0-58.61-5.57-74.78-15.39,.27,4.18,3.8,8.76,3.8,8.76C8.86,62.98,4.55,51.34,4.55,51.34c9.04,9.2,33.14,14.08,33.14,14.08-9.85-.17-15.98-1.09-18.76-1.63,16.12,7.7,40.34,12.59,67.43,12.59,48.53,0,88.77-15.73,87.88-35.09-.9-19.36-37.24-32.88-70.89-33.71,47.58,1.18,78.88,17.36,78.88,35.79Zm-88.39,29.15c-33.65-.83-70-14.35-70.89-33.71C22.03,19.45,62.27,3.72,110.8,3.72c27.09,0,51.31,4.9,67.43,12.59-2.78-.54-8.91-1.46-18.76-1.63,0,0,24.1,4.88,33.14,14.08,0,0-4.32-11.64-16.53-22.15,0,0,3.52,4.58,3.8,8.76C163.7,5.57,136.31,0,105.09,0,55.3,0,14.94,16.45,14.94,36.73c0,18.43,31.3,34.61,78.88,35.79Zm-8.76-51.59H47.57v8.97h11.86v31.25h13.78V29.91h11.86v-8.97Zm58.48,40.22h-13.78V20.93h13.78V61.15Zm-19.21-9.18v9.18h-33.84V20.93h13.78v31.04h20.06ZM0,90.17H2.82v6.74h2.77v-6.74h2.82v-2.21H0v2.21Zm17.27,3.83c0-.85-.14-1.55-.42-2.08-.28-.53-.69-.94-1.23-1.22-.54-.28-1.27-.42-2.2-.42-1.14,0-2.04,.31-2.69,.94-.65,.63-.97,1.45-.97,2.46,0,.71,.16,1.33,.49,1.86,.32,.53,.73,.91,1.22,1.15s1.17,.36,2.03,.36c.99,0,1.75-.14,2.28-.42,.53-.28,.98-.75,1.36-1.4l-2.45-.23c-.15,.2-.3,.33-.43,.41-.22,.12-.45,.18-.7,.18-.39,0-.7-.14-.94-.42-.17-.2-.28-.49-.32-.89h4.98v-.28Zm-4.97-.91c.04-.39,.14-.68,.29-.87,.24-.31,.55-.47,.95-.47,.34,0,.62,.1,.83,.31,.21,.21,.34,.55,.39,1.03h-2.45Zm.1-3.46h1.19l1.97-1.83h-2.14l-1.03,1.83Zm10.94,5.51c-.22,.17-.5,.25-.82,.25-.39,0-.71-.14-.96-.41-.25-.28-.38-.68-.38-1.21,0-.6,.13-1.04,.38-1.34,.25-.29,.59-.44,1-.44,.33,0,.58,.07,.78,.21s.33,.35,.4,.62l2.34-.31c-.22-.73-.61-1.28-1.17-1.66-.56-.38-1.36-.57-2.42-.57-.76,0-1.38,.1-1.86,.3-.31,.13-.6,.32-.89,.58-.29,.26-.52,.55-.68,.88-.23,.44-.34,1-.34,1.66s.09,1.15,.28,1.54c.19,.39,.45,.72,.78,1.01,.33,.29,.72,.49,1.18,.62,.46,.13,1.03,.19,1.72,.19s1.3-.1,1.76-.3,.84-.48,1.14-.84c.3-.36,.51-.79,.64-1.28l-2.36-.27c-.11,.35-.28,.6-.5,.77Zm4.59,1.77h2.48v-3.11c0-.59,.09-1,.28-1.23,.19-.23,.43-.34,.73-.34,.27,0,.48,.08,.63,.25s.23,.46,.23,.86v3.56h2.5v-4.12c0-.85-.19-1.49-.58-1.89-.39-.41-.93-.61-1.61-.61-.51,0-.94,.09-1.29,.28s-.7,.49-1.05,.92v-1.06h-2.31v6.48Zm9.02-7.26h2.48v-1.69h-2.48v1.69Zm0,7.26h2.48v-6.48h-2.48v6.48Zm9-1.77c-.22,.17-.5,.25-.82,.25-.39,0-.71-.14-.96-.41-.25-.28-.38-.68-.38-1.21,0-.6,.13-1.04,.38-1.34,.25-.29,.59-.44,1-.44,.33,0,.58,.07,.78,.21s.33,.35,.4,.62l2.34-.31c-.22-.73-.61-1.28-1.17-1.66-.56-.38-1.36-.57-2.42-.57-.76,0-1.38,.1-1.86,.3-.31,.13-.6,.32-.89,.58-.29,.26-.52,.55-.68,.88-.23,.44-.34,1-.34,1.66s.09,1.15,.28,1.54c.19,.39,.45,.72,.78,1.01,.33,.29,.72,.49,1.18,.62,.46,.13,1.03,.19,1.72,.19s1.3-.1,1.76-.3,.84-.48,1.14-.84c.3-.36,.51-.79,.64-1.28l-2.36-.27c-.11,.35-.28,.6-.5,.77Zm7.24-3.19c.2-.13,.51-.2,.92-.2,.32,0,.54,.06,.67,.18,.13,.12,.19,.34,.19,.64-.31,.12-.6,.22-.88,.3-.28,.08-.88,.21-1.81,.39-.78,.15-1.31,.39-1.6,.71s-.43,.72-.43,1.21c0,.52,.2,.97,.6,1.32,.4,.36,.99,.54,1.76,.54,.58,0,1.09-.09,1.53-.27,.32-.13,.64-.36,.97-.67,.03,.19,.06,.32,.09,.41,.03,.09,.09,.21,.18,.38h2.33c-.13-.27-.21-.49-.25-.66s-.06-.41-.06-.72v-2.86c0-.3-.06-.62-.18-.96s-.29-.6-.5-.78c-.3-.26-.68-.44-1.13-.52-.45-.08-1.05-.13-1.79-.13-.46,0-.9,.04-1.29,.1s-.71,.17-.94,.29c-.32,.17-.56,.38-.73,.62s-.3,.56-.39,.98l2.37,.25c.1-.28,.23-.47,.38-.57Zm1.77,2.28c0,.31-.05,.56-.15,.75s-.27,.36-.51,.49c-.24,.13-.5,.2-.77,.2s-.46-.06-.6-.19-.2-.28-.2-.48c0-.17,.07-.32,.21-.46,.13-.13,.45-.26,.96-.4,.37-.09,.73-.2,1.07-.32v.4Zm9.43,2.68h7.08v-2.2h-4.31v-6.74h-2.77v8.95Zm9.64-.65c.64,.53,1.48,.79,2.53,.79,1.17,0,2.08-.32,2.74-.96s.99-1.45,.99-2.45c0-.89-.27-1.63-.8-2.24-.66-.75-1.64-1.13-2.94-1.13-1.14,0-2.04,.32-2.7,.96-.67,.64-1,1.46-1,2.44,0,1.06,.4,1.92,1.18,2.58Zm1.66-3.85c.24-.28,.53-.42,.9-.42,.34,0,.63,.14,.86,.41,.23,.28,.35,.69,.35,1.25,0,.6-.12,1.04-.34,1.31-.23,.27-.52,.41-.88,.41s-.65-.14-.88-.42c-.23-.28-.35-.7-.35-1.28s.12-.99,.35-1.27Zm10.9-1.02c-.28-.39-.59-.68-.92-.85-.33-.17-.74-.26-1.25-.26-.79,0-1.43,.26-1.92,.79s-.73,1.3-.73,2.31c0,.88,.19,1.59,.57,2.13,.53,.76,1.23,1.13,2.1,1.13,.44,0,.86-.1,1.24-.3,.24-.13,.49-.34,.73-.63v.98c0,.48-.09,.81-.27,1-.18,.19-.44,.29-.8,.29-.28,0-.51-.06-.69-.19-.13-.08-.22-.24-.28-.46l-2.41-.27c0,.14-.01,.25-.01,.33,0,.65,.24,1.18,.73,1.57,.49,.39,1.38,.59,2.68,.59,.57,0,1.08-.05,1.52-.15,.44-.1,.81-.27,1.09-.5,.29-.23,.52-.53,.69-.89,.17-.37,.26-.76,.26-1.16v-.29s0-6.12,0-6.12h-2.33v.96Zm-2.05,1.04c.19-.23,.44-.34,.76-.34s.59,.12,.81,.38c.22,.25,.33,.61,.33,1.08s-.1,.83-.31,1.06c-.21,.23-.47,.35-.78,.35-.33,0-.59-.11-.79-.34s-.3-.57-.3-1.04c0-.53,.09-.91,.28-1.14Zm6.56,4.48h2.48v-6.48h-2.48v6.48Zm.15-7.28h1.19l1.97-1.83h-2.14l-1.03,1.83Zm5.04,6.92c.5,.34,1.35,.51,2.53,.51,.84,0,1.5-.1,1.99-.31,.49-.21,.84-.49,1.07-.84s.34-.72,.34-1.09-.11-.71-.32-1.02c-.21-.31-.52-.55-.92-.71s-1.02-.3-1.84-.39c-.54-.06-.9-.14-1.06-.22-.16-.08-.24-.2-.24-.36,0-.14,.06-.26,.19-.36,.13-.1,.33-.15,.61-.15s.51,.07,.71,.2c.14,.1,.24,.25,.31,.46l2.36-.23c-.16-.42-.37-.76-.61-1.01s-.55-.43-.92-.55-.94-.18-1.71-.18c-.73,0-1.32,.08-1.75,.23-.44,.15-.78,.38-1.03,.69-.25,.31-.37,.68-.37,1.1,0,.39,.11,.74,.34,1.04s.51,.52,.85,.65c.34,.13,.93,.27,1.8,.42,.58,.1,.93,.19,1.07,.26,.19,.1,.28,.24,.28,.41,0,.16-.07,.29-.21,.4-.18,.14-.44,.21-.77,.21-.3,0-.55-.06-.73-.19-.18-.13-.33-.33-.43-.63l-2.47,.23c.14,.62,.46,1.1,.97,1.44Zm8.2-7.31v1.19h-.92v1.82h.92v2.28c0,.72,.07,1.25,.21,1.57s.36,.56,.65,.72c.29,.16,.75,.24,1.37,.24,.53,0,1.11-.07,1.72-.2l-.18-1.71c-.33,.11-.59,.16-.77,.16-.2,0-.35-.07-.43-.21-.05-.09-.08-.27-.08-.55v-2.3h1.37v-1.82h-1.37v-2.46l-2.49,1.28Zm5.72,.42h2.48v-1.69h-2.48v1.69Zm0,7.26h2.48v-6.48h-2.48v6.48Zm9-1.77c-.22,.17-.5,.25-.82,.25-.39,0-.71-.14-.96-.41-.25-.28-.38-.68-.38-1.21,0-.6,.13-1.04,.38-1.34,.25-.29,.59-.44,1-.44,.33,0,.58,.07,.78,.21s.33,.35,.4,.62l2.34-.31c-.22-.73-.61-1.28-1.17-1.66-.55-.38-1.36-.57-2.42-.57-.76,0-1.38,.1-1.86,.3-.31,.13-.6,.32-.89,.58-.29,.26-.52,.55-.68,.88-.23,.44-.34,1-.34,1.66s.09,1.15,.28,1.54c.19,.39,.45,.72,.78,1.01,.33,.29,.72,.49,1.18,.62s1.03,.19,1.72,.19,1.3-.1,1.76-.3c.46-.2,.84-.48,1.14-.84,.3-.36,.51-.79,.64-1.28l-2.36-.27c-.11,.35-.28,.6-.5,.77Zm7.24-3.19c.2-.13,.51-.2,.92-.2,.32,0,.54,.06,.67,.18,.13,.12,.19,.34,.19,.64-.31,.12-.6,.22-.88,.3-.28,.08-.88,.21-1.81,.39-.78,.15-1.31,.39-1.6,.71s-.43,.72-.43,1.21c0,.52,.2,.97,.6,1.32,.4,.36,.99,.54,1.76,.54,.58,0,1.09-.09,1.53-.27,.32-.13,.64-.36,.97-.67,.03,.19,.06,.32,.08,.41,.03,.09,.09,.21,.18,.38h2.33c-.13-.27-.21-.49-.25-.66-.04-.17-.06-.41-.06-.72v-2.86c0-.3-.06-.62-.18-.96s-.29-.6-.5-.78c-.3-.26-.68-.44-1.13-.52-.45-.08-1.05-.13-1.79-.13-.46,0-.9,.04-1.29,.1-.4,.07-.71,.17-.94,.29-.32,.17-.56,.38-.73,.62s-.3,.56-.39,.98l2.38,.25c.1-.28,.23-.47,.38-.57Zm1.77,2.28c0,.31-.05,.56-.15,.75-.1,.19-.27,.36-.51,.49-.24,.13-.5,.2-.77,.2s-.46-.06-.6-.19c-.14-.12-.21-.28-.21-.48,0-.17,.07-.32,.21-.46,.13-.13,.45-.26,.96-.4,.37-.09,.73-.2,1.07-.32v.4Zm9.54,2.68h2.77v-8.95h-2.77v8.95Zm5.18,0h2.48v-3.11c0-.59,.09-1,.28-1.23,.19-.23,.43-.34,.73-.34,.27,0,.48,.08,.63,.25s.23,.46,.23,.86v3.56h2.5v-4.12c0-.85-.2-1.49-.58-1.89-.39-.41-.93-.61-1.61-.61-.51,0-.94,.09-1.29,.28-.35,.19-.7,.49-1.05,.92v-1.06h-2.31v6.48Zm9.43-7.67v1.19h-.92v1.82h.92v2.28c0,.72,.07,1.25,.21,1.57s.36,.56,.65,.72c.29,.16,.75,.24,1.37,.24,.53,0,1.11-.07,1.72-.2l-.18-1.71c-.33,.11-.59,.16-.77,.16-.2,0-.35-.07-.43-.21-.05-.09-.08-.27-.08-.55v-2.3h1.37v-1.82h-1.37v-2.46l-2.49,1.28Zm12.83,4.77c0-.85-.14-1.55-.42-2.08-.28-.53-.69-.94-1.23-1.22-.54-.28-1.27-.42-2.2-.42-1.14,0-2.04,.31-2.69,.94-.65,.63-.97,1.45-.97,2.46,0,.71,.16,1.33,.49,1.86s.73,.91,1.22,1.15,1.17,.36,2.03,.36c.99,0,1.75-.14,2.28-.42,.53-.28,.98-.75,1.36-1.4l-2.45-.23c-.16,.2-.3,.33-.43,.41-.22,.12-.45,.18-.7,.18-.39,0-.7-.14-.94-.42-.17-.2-.28-.49-.32-.89h4.98v-.28Zm-4.97-.91c.04-.39,.14-.68,.29-.87,.24-.31,.55-.47,.95-.47,.34,0,.62,.1,.83,.31,.21,.21,.34,.55,.39,1.03h-2.45Zm11.53-1.71c-.29-.39-.59-.68-.92-.85-.33-.17-.74-.26-1.25-.26-.79,0-1.43,.26-1.92,.79s-.73,1.3-.73,2.31c0,.88,.19,1.59,.57,2.13,.53,.76,1.23,1.13,2.1,1.13,.44,0,.86-.1,1.24-.3,.24-.13,.49-.34,.73-.63v.98c0,.48-.09,.81-.27,1-.18,.19-.44,.29-.8,.29-.28,0-.51-.06-.69-.19-.13-.08-.22-.24-.28-.46l-2.41-.27c0,.14-.01,.25-.01,.33,0,.65,.24,1.18,.73,1.57s1.38,.59,2.68,.59c.57,0,1.08-.05,1.52-.15,.44-.1,.81-.27,1.09-.5,.29-.23,.52-.53,.69-.89,.17-.37,.26-.76,.26-1.16v-.29s0-6.12,0-6.12h-2.33v.96Zm-2.05,1.04c.19-.23,.44-.34,.76-.34s.59,.12,.81,.38c.22,.25,.33,.61,.33,1.08s-.1,.83-.31,1.06c-.21,.23-.47,.35-.78,.35-.33,0-.59-.11-.79-.34s-.3-.57-.3-1.04c0-.53,.09-.91,.28-1.14Zm6.72,4.48h2.5v-2.17c0-1.04,.13-1.75,.38-2.12,.18-.27,.43-.4,.76-.4,.17,0,.4,.06,.7,.18l.77-1.77c-.44-.23-.84-.34-1.2-.34s-.64,.09-.88,.26c-.24,.17-.47,.49-.69,.95v-1.06h-2.33v6.48Zm8.97-4.96c.2-.13,.51-.2,.92-.2,.32,0,.54,.06,.67,.18,.13,.12,.19,.34,.19,.64-.31,.12-.6,.22-.88,.3-.28,.08-.88,.21-1.81,.39-.78,.15-1.31,.39-1.6,.71s-.43,.72-.43,1.21c0,.52,.2,.97,.6,1.32,.4,.36,.99,.54,1.76,.54,.58,0,1.09-.09,1.53-.27,.32-.13,.64-.36,.97-.67,.03,.19,.06,.32,.08,.41,.03,.09,.09,.21,.18,.38h2.33c-.13-.27-.21-.49-.25-.66-.04-.17-.06-.41-.06-.72v-2.86c0-.3-.06-.62-.18-.96s-.29-.6-.5-.78c-.3-.26-.68-.44-1.13-.52-.45-.08-1.05-.13-1.79-.13-.46,0-.9,.04-1.29,.1-.4,.07-.71,.17-.94,.29-.32,.17-.56,.38-.73,.62s-.3,.56-.39,.98l2.38,.25c.1-.28,.23-.47,.38-.57Zm1.77,2.28c0,.31-.05,.56-.15,.75-.1,.19-.27,.36-.51,.49-.24,.13-.5,.2-.77,.2s-.46-.06-.6-.19c-.14-.12-.21-.28-.21-.48,0-.17,.07-.32,.21-.46,.13-.13,.45-.26,.96-.4,.37-.09,.73-.2,1.07-.32v.4Zm4.59,2.68h2.49v-8.95h-2.49v8.95Z"/>
  </g>
</svg>